<svg width="137" height="33" viewBox="0 0 137 33" fill="none" xmlns="http://www.w3.org/2000/svg">
<path d="M3.1543 24.3203H0.87207V22.9844H3.1543C3.8099 22.9844 4.36035 22.737 4.80566 22.2422C5.25098 21.7474 5.47363 21.0918 5.47363 20.2754V0.273438H6.80957V20.2754C6.80957 21.4505 6.45703 22.4215 5.75195 23.1885C5.04688 23.943 4.18099 24.3203 3.1543 24.3203ZM3.1543 26.9922H0.87207V25.6562H3.1543C4.53971 25.6562 5.71484 25.1305 6.67969 24.0791C7.6569 23.0277 8.14551 21.7598 8.14551 20.2754V0.273438H9.48145V20.2754C9.48145 22.1309 8.86296 23.7142 7.62598 25.0254C6.40137 26.3366 4.91081 26.9922 3.1543 26.9922ZM3.1543 29.6641H0.87207V28.3281H3.1543C5.2819 28.3281 7.08789 27.5426 8.57227 25.9717C10.069 24.4007 10.8174 22.502 10.8174 20.2754V0.273438H12.1533V20.2754C12.1533 21.9701 11.7513 23.541 10.9473 24.9883C10.1556 26.4232 9.06706 27.5612 7.68164 28.4023C6.29622 29.2435 4.78711 29.6641 3.1543 29.6641ZM3.1543 32.3359H0.87207V31H3.1543C4.56445 31 5.90658 30.7155 7.18066 30.1465C8.45475 29.5775 9.54948 28.8167 10.4648 27.8643C11.3926 26.8994 12.1286 25.7552 12.6729 24.4316C13.2171 23.1081 13.4893 21.7227 13.4893 20.2754V0.273438H14.8252V20.2754C14.8252 21.9082 14.516 23.4668 13.8975 24.9512C13.2913 26.4355 12.4626 27.722 11.4111 28.8105C10.3721 29.8867 9.12891 30.7402 7.68164 31.3711C6.24674 32.0143 4.73763 32.3359 3.1543 32.3359ZM35.7734 19.1621V4.28125H37.1094V19.1621C37.1094 20.5723 36.5651 21.7845 35.4766 22.7988C34.4004 23.8132 33.1016 24.3203 31.5801 24.3203C30.0586 24.3203 28.7536 23.8132 27.665 22.7988C26.5889 21.7845 26.0508 20.5723 26.0508 19.1621V4.28125H27.3867V19.1621C27.3867 20.2135 27.7949 21.1165 28.6113 21.8711C29.4401 22.6133 30.4297 22.9844 31.5801 22.9844C32.7305 22.9844 33.7139 22.6133 34.5303 21.8711C35.359 21.1165 35.7734 20.2135 35.7734 19.1621ZM38.4453 19.1621V4.28125H39.7812V19.1621C39.7812 21.3268 38.9772 23.1761 37.3691 24.71C35.7611 26.2314 33.8314 26.9922 31.5801 26.9922C29.3288 26.9922 27.3991 26.2314 25.791 24.71C24.1829 23.1761 23.3789 21.3268 23.3789 19.1621V4.28125H24.7148V19.1621C24.7148 20.9557 25.3828 22.4896 26.7188 23.7637C28.0671 25.0254 29.6875 25.6562 31.5801 25.6562C33.4603 25.6562 35.0745 25.0254 36.4229 23.7637C37.7712 22.4896 38.4453 20.9557 38.4453 19.1621ZM41.1172 19.1621V4.28125H42.4531V19.1621C42.4531 21.0547 41.9645 22.8112 40.9873 24.4316C40.0101 26.0397 38.6865 27.3138 37.0166 28.2539C35.3467 29.194 33.5345 29.6641 31.5801 29.6641C29.6257 29.6641 27.8135 29.194 26.1436 28.2539C24.4736 27.3138 23.1501 26.0397 22.1729 24.4316C21.1956 22.8112 20.707 21.0547 20.707 19.1621V4.28125H22.043V19.1621C22.043 20.8073 22.4697 22.335 23.3232 23.7451C24.1768 25.1553 25.3333 26.2747 26.793 27.1035C28.265 27.9199 29.8607 28.3281 31.5801 28.3281C33.2995 28.3281 34.889 27.9199 36.3486 27.1035C37.8206 26.2747 38.9834 25.1553 39.8369 23.7451C40.6904 22.335 41.1172 20.8073 41.1172 19.1621ZM43.7891 19.1621V4.28125H45.125V19.1621C45.125 20.9434 44.7663 22.6504 44.0488 24.2832C43.3314 25.9036 42.3665 27.3014 41.1543 28.4766C39.9421 29.6517 38.501 30.5856 36.8311 31.2783C35.1611 31.9834 33.4108 32.3359 31.5801 32.3359C29.7493 32.3359 27.999 31.9834 26.3291 31.2783C24.6592 30.5856 23.2181 29.6517 22.0059 28.4766C20.7936 27.3014 19.8288 25.9036 19.1113 24.2832C18.3939 22.6504 18.0352 20.9434 18.0352 19.1621V4.28125H19.3711V19.1621C19.3711 21.2897 19.9154 23.2627 21.0039 25.0811C22.1048 26.8994 23.5892 28.3405 25.457 29.4043C27.3372 30.4681 29.3783 31 31.5801 31C33.7819 31 35.8167 30.4681 37.6846 29.4043C39.5648 28.3405 41.0492 26.8994 42.1377 25.0811C43.2386 23.2627 43.7891 21.2897 43.7891 19.1621ZM60.7666 18.29H58.6514C56.0537 18.29 54.056 17.7643 52.6582 16.7129C51.2604 15.6491 50.5615 14.1895 50.5615 12.334C50.5615 10.6022 51.3841 9.16113 53.0293 8.01074C54.6745 6.84798 56.9814 6.2666 59.9502 6.2666C61.9294 6.2666 63.7725 6.53874 65.4795 7.08301C67.1989 7.62728 68.6276 8.39421 69.7656 9.38379L68.7266 10.2188C67.7122 9.38997 66.4382 8.74674 64.9043 8.28906C63.3704 7.83138 61.7191 7.60254 59.9502 7.60254C57.3402 7.60254 55.3424 8.04785 53.957 8.93848C52.584 9.8291 51.8975 10.9609 51.8975 12.334C51.8975 13.8184 52.4603 14.9626 53.5859 15.7666C54.724 16.5583 56.4124 16.9541 58.6514 16.9541H60.6924C63.3271 16.9541 65.3434 17.486 66.7412 18.5498C68.1514 19.6012 68.8564 21.0547 68.8564 22.9102C68.8564 24.6419 68.0339 26.0892 66.3887 27.252C64.7435 28.4023 62.4365 28.9775 59.4678 28.9775C57.4886 28.9775 55.6393 28.7054 53.9199 28.1611C52.2129 27.6169 50.7904 26.8499 49.6523 25.8604L50.6914 25.0254C51.7057 25.8542 52.9798 26.4974 54.5137 26.9551C56.0475 27.4128 57.6989 27.6416 59.4678 27.6416C62.0778 27.6416 64.0693 27.1963 65.4424 26.3057C66.8278 25.415 67.5205 24.2832 67.5205 22.9102C67.5205 21.4258 66.9515 20.2878 65.8135 19.4961C64.6878 18.6921 63.0055 18.29 60.7666 18.29ZM60.7666 20.9619H58.6514C55.2126 20.9619 52.5592 20.1826 50.6914 18.624C48.8236 17.0531 47.8896 14.9564 47.8896 12.334C47.8896 11.1341 48.1556 10.0085 48.6875 8.95703C49.2194 7.9056 49.9801 6.98405 50.9697 6.19238C51.9717 5.38835 53.2458 4.75749 54.792 4.2998C56.3382 3.82975 58.0576 3.59473 59.9502 3.59473C62.3376 3.59473 64.5703 3.95964 66.6484 4.68945C68.7266 5.4069 70.4583 6.41504 71.8438 7.71387L70.7676 8.51172C69.5059 7.3737 67.9287 6.49544 66.0361 5.87695C64.1436 5.24609 62.1149 4.93066 59.9502 4.93066C56.6104 4.93066 53.988 5.63574 52.083 7.0459C50.1781 8.45605 49.2256 10.2188 49.2256 12.334C49.2256 14.5729 50.042 16.348 51.6748 17.6592C53.3076 18.9704 55.6331 19.626 58.6514 19.626H60.6924C64.3538 19.626 66.1846 20.7207 66.1846 22.9102C66.1846 23.8997 65.6217 24.7161 64.4961 25.3594C63.3828 25.9902 61.7067 26.3057 59.4678 26.3057C57.8968 26.3057 56.4372 26.1263 55.0889 25.7676C53.7406 25.3965 52.6273 24.8708 51.749 24.1904L52.8066 23.374C54.3529 24.4378 56.5732 24.9697 59.4678 24.9697C61.3232 24.9697 62.6839 24.778 63.5498 24.3945C64.4157 24.0111 64.8486 23.5163 64.8486 22.9102C64.8486 22.2051 64.5456 21.7041 63.9395 21.4072C63.3333 21.1104 62.2757 20.9619 60.7666 20.9619ZM60.7666 15.6182H58.6514C55.0394 15.6182 53.2334 14.5234 53.2334 12.334C53.2334 11.3444 53.79 10.5342 54.9033 9.90332C56.029 9.26009 57.7113 8.93848 59.9502 8.93848C61.5212 8.93848 62.9808 9.12402 64.3291 9.49512C65.6774 9.85384 66.7907 10.3734 67.6689 11.0537L66.6113 11.8701C65.0651 10.8063 62.8447 10.2744 59.9502 10.2744C58.0947 10.2744 56.734 10.4661 55.8682 10.8496C55.0023 11.2331 54.5693 11.7279 54.5693 12.334C54.5693 13.0391 54.8724 13.54 55.4785 13.8369C56.0846 14.1338 57.1423 14.2822 58.6514 14.2822H60.7666C64.2054 14.2822 66.8587 15.0677 68.7266 16.6387C70.5944 18.1973 71.5283 20.2878 71.5283 22.9102C71.5283 24.11 71.2624 25.2357 70.7305 26.2871C70.1986 27.3385 69.4316 28.2663 68.4297 29.0703C67.4401 29.862 66.1722 30.4928 64.626 30.9629C63.0798 31.4206 61.3604 31.6494 59.4678 31.6494C57.0804 31.6494 54.8477 31.2907 52.7695 30.5732C50.6914 29.8434 48.9596 28.8291 47.5742 27.5303L48.6504 26.7324C49.9121 27.8704 51.4893 28.7549 53.3818 29.3857C55.2744 30.0042 57.3031 30.3135 59.4678 30.3135C62.8076 30.3135 65.43 29.6084 67.335 28.1982C69.2399 26.7881 70.1924 25.0254 70.1924 22.9102C70.1924 20.6712 69.376 18.8962 67.7432 17.585C66.1104 16.2738 63.7848 15.6182 60.7666 15.6182ZM79.1914 11.6846H80.5273V31H79.1914V11.6846ZM73.8477 5.61719V4.28125H93.8867V5.61719H73.8477ZM73.8477 8.28906V6.95312H93.8867V8.28906H73.8477ZM73.8477 10.9609V9.625H93.8867V10.9609H73.8477ZM87.207 11.6846H88.543V31H87.207V11.6846ZM84.5352 11.6846H85.8711V31H84.5352V11.6846ZM81.8633 11.6846H83.1992V31H81.8633V11.6846ZM104.853 4.28125H106.188V31H104.853V4.28125ZM102.181 4.28125H103.517V31H102.181V4.28125ZM99.5088 4.28125H100.845V31H99.5088V4.28125ZM96.8369 4.28125H98.1729V31H96.8369V4.28125ZM130.755 20.2197L129.419 17.7891V4.28125H130.755V20.2197ZM133.427 24.8398L132.091 22.5762V4.28125H133.427V24.8398ZM115.021 15.0615L116.356 17.4922V31H115.021V15.0615ZM112.349 10.2559L113.685 12.7051V31H112.349V10.2559ZM112.812 4.28125H114.371L129.846 31H128.287L112.812 4.28125ZM115.967 4.28125H117.544L133 31H131.404L115.967 4.28125ZM119.103 4.28125H120.661L134.763 28.6807V4.28125H136.099V31H134.521L119.103 4.28125ZM111.013 6.58203V31H109.677V4.28125H111.272L126.691 31H125.151L111.013 6.58203Z" fill="#2B4520"/>
</svg>
